<svg aria-hidden="true" style="position: absolute; width: 0; height: 0; overflow: hidden;" version="1.1" xmlns="http://www.w3.org/2000/svg" xmlns:xlink="http://www.w3.org/1999/xlink">
<defs>
<symbol id="icon-folder" viewBox="0 0 32 32">
<path fill="#fff" style="fill: var(--color1, #fff)" opacity="0.38" d="M18.667 17.333h-1.333v-1.333c0-0.354-0.14-0.693-0.39-0.943s-0.589-0.39-0.943-0.39c-0.354 0-0.693 0.14-0.943 0.39s-0.39 0.589-0.39 0.943v1.333h-1.333c-0.354 0-0.693 0.14-0.943 0.39s-0.39 0.589-0.39 0.943c0 0.354 0.14 0.693 0.39 0.943s0.589 0.39 0.943 0.39h1.333v1.333c0 0.354 0.14 0.693 0.39 0.943s0.589 0.39 0.943 0.39c0.354 0 0.693-0.14 0.943-0.39s0.39-0.589 0.39-0.943v-1.333h1.333c0.354 0 0.693-0.14 0.943-0.39s0.39-0.589 0.39-0.943c0-0.354-0.14-0.693-0.39-0.943s-0.589-0.39-0.943-0.39z"></path>
<path fill="#fff" style="fill: var(--color1, #fff)" opacity="0.38" d="M26 9.4h-9.333l-3.507-4.24c-0.124-0.153-0.281-0.277-0.458-0.362s-0.372-0.13-0.569-0.132h-6.133c-0.871-0.011-1.711 0.324-2.336 0.932s-0.983 1.437-0.997 2.308v16.187c0.014 0.871 0.373 1.701 0.997 2.308s1.465 0.942 2.336 0.932h20c0.871 0.011 1.711-0.324 2.336-0.932s0.983-1.437 0.997-2.308v-11.453c-0.014-0.871-0.373-1.701-0.997-2.309s-1.465-0.942-2.336-0.932zM26.667 24.067c-0.005 0.082-0.026 0.162-0.063 0.235s-0.087 0.139-0.149 0.192c-0.062 0.053-0.134 0.094-0.212 0.119s-0.16 0.034-0.242 0.027h-20c-0.082 0.007-0.164-0.002-0.242-0.027s-0.15-0.066-0.212-0.119c-0.062-0.053-0.113-0.119-0.149-0.192s-0.058-0.153-0.063-0.235v-16.16c0.005-0.082 0.026-0.162 0.063-0.235s0.087-0.139 0.149-0.192c0.062-0.053 0.134-0.094 0.212-0.119s0.16-0.034 0.242-0.027h5.507l3.467 4.24c0.124 0.153 0.281 0.276 0.458 0.362s0.372 0.13 0.569 0.132h10c0.082-0.007 0.164 0.002 0.242 0.027s0.15 0.066 0.212 0.119 0.113 0.119 0.149 0.192c0.036 0.073 0.058 0.153 0.063 0.235v11.427z"></path>
</symbol>
<symbol id="icon-like" viewBox="0 0 32 32">
<path fill="#fff" style="fill: var(--color1, #fff)" opacity="0.38" d="M22.667 6c-2.8 0-5.267 1.4-6.667 3.6-1.4-2.2-3.867-3.6-6.667-3.6-4.4 0-8 3.6-8 8 0 7.933 14.667 16 14.667 16s14.667-8 14.667-16c0-4.4-3.6-8-8-8z"></path>
</symbol>
<symbol id="icon-Figma" viewBox="0 0 32 32">
<path fill="#19bcfe" style="fill: var(--color2, #19bcfe)" opacity="0.78" d="M21.333 21.333c2.945 0 5.333-2.388 5.333-5.333s-2.388-5.333-5.333-5.333c-2.946 0-5.333 2.388-5.333 5.333s2.388 5.333 5.333 5.333z"></path>
<path fill="#09cf83" style="fill: var(--color3, #09cf83)" opacity="0.78" d="M10.667 32c1.415 0 2.771-0.562 3.771-1.562s1.562-2.357 1.562-3.771v-5.333h-5.333c-1.415 0-2.771 0.562-3.771 1.562s-1.562 2.357-1.562 3.771c0 1.415 0.562 2.771 1.562 3.771s2.357 1.562 3.771 1.562z"></path>
<path fill="#a259ff" style="fill: var(--color4, #a259ff)" opacity="0.78" d="M10.667 21.333h5.333v-10.667h-5.333c-1.415 0-2.771 0.562-3.771 1.562s-1.562 2.357-1.562 3.771c0 1.415 0.562 2.771 1.562 3.771s2.357 1.562 3.771 1.562z"></path>
<path fill="#f24e1e" style="fill: var(--color5, #f24e1e)" opacity="0.78" d="M10.667 10.667h5.333v-10.667h-5.333c-1.415 0-2.771 0.562-3.771 1.562s-1.562 2.357-1.562 3.771c0 1.414 0.562 2.771 1.562 3.771s2.357 1.562 3.771 1.562z"></path>
<path fill="#ff7262" style="fill: var(--color6, #ff7262)" opacity="0.78" d="M21.333 10.667h-5.333v-10.667h5.333c1.414 0 2.771 0.562 3.771 1.562s1.562 2.357 1.562 3.771c0 1.414-0.562 2.771-1.562 3.771s-2.357 1.562-3.771 1.562z"></path>
</symbol>
<symbol id="icon-Grommet" viewBox="0 0 33 32">
<path fill="#e01e5a" style="fill: var(--color7, #e01e5a)" opacity="0.78" d="M6.836 20.11c0 0.439-0.088 0.874-0.259 1.28s-0.422 0.774-0.738 1.085c-0.316 0.311-0.692 0.557-1.105 0.724s-0.856 0.254-1.304 0.253c-0.447 0-0.89-0.086-1.303-0.254s-0.788-0.414-1.104-0.725c-0.316-0.31-0.567-0.679-0.738-1.085s-0.259-0.84-0.258-1.279c-0-0.439 0.087-0.874 0.258-1.28s0.422-0.774 0.738-1.085c0.316-0.311 0.692-0.557 1.105-0.725s0.856-0.254 1.303-0.254h3.406v3.343h-0.001zM8.538 20.11c-0-0.439 0.087-0.874 0.258-1.28s0.422-0.774 0.738-1.085c0.316-0.311 0.692-0.557 1.105-0.725s0.856-0.254 1.303-0.254c0.447-0 0.89 0.086 1.303 0.254s0.789 0.414 1.105 0.725c0.316 0.31 0.567 0.679 0.738 1.085s0.259 0.841 0.258 1.28v8.358c0 0.439-0.087 0.874-0.258 1.28s-0.422 0.774-0.738 1.085-0.692 0.557-1.105 0.725c-0.413 0.168-0.856 0.254-1.303 0.254s-0.89-0.086-1.303-0.254-0.789-0.414-1.105-0.725c-0.316-0.31-0.567-0.679-0.738-1.085s-0.259-0.841-0.258-1.28v-8.358z"></path>
<path fill="#36c5f0" style="fill: var(--color8, #36c5f0)" opacity="0.78" d="M11.942 6.687c-0.447 0-0.89-0.086-1.304-0.254s-0.789-0.414-1.105-0.725c-0.316-0.311-0.567-0.679-0.738-1.085s-0.259-0.841-0.258-1.28c-0-0.439 0.088-0.874 0.258-1.28s0.422-0.774 0.738-1.085c0.316-0.31 0.692-0.557 1.105-0.725s0.856-0.254 1.303-0.254c0.447-0 0.89 0.086 1.303 0.254s0.789 0.414 1.105 0.725c0.316 0.31 0.567 0.679 0.738 1.085s0.259 0.841 0.258 1.28v3.345l-3.404-0.001zM11.942 8.383c0.447-0 0.89 0.086 1.303 0.254s0.789 0.414 1.105 0.725c0.316 0.31 0.567 0.679 0.738 1.085s0.259 0.841 0.258 1.28c0 0.439-0.087 0.874-0.258 1.28s-0.422 0.774-0.738 1.085c-0.316 0.31-0.692 0.557-1.105 0.725s-0.856 0.254-1.303 0.254h-8.538c-0.447 0-0.89-0.086-1.303-0.254s-0.788-0.414-1.105-0.724c-0.316-0.31-0.567-0.679-0.738-1.084s-0.259-0.84-0.259-1.279c-0-0.439 0.087-0.874 0.258-1.28s0.422-0.774 0.738-1.085 0.692-0.557 1.105-0.725c0.413-0.168 0.856-0.254 1.303-0.254l8.538-0.001z"></path>
<path fill="#2eb67d" style="fill: var(--color9, #2eb67d)" opacity="0.78" d="M25.587 11.726c-0-0.439 0.087-0.874 0.259-1.28s0.422-0.774 0.738-1.085c0.316-0.31 0.692-0.557 1.105-0.724s0.856-0.254 1.304-0.253c0.447-0 0.89 0.086 1.303 0.254s0.789 0.414 1.105 0.725c0.316 0.31 0.567 0.679 0.738 1.085s0.259 0.841 0.258 1.28c0 0.439-0.087 0.874-0.258 1.28s-0.422 0.774-0.738 1.085c-0.316 0.31-0.692 0.557-1.105 0.725s-0.856 0.254-1.303 0.254h-3.406v-3.343zM23.885 11.726c0 0.439-0.087 0.874-0.258 1.28s-0.422 0.774-0.738 1.085c-0.316 0.31-0.692 0.557-1.105 0.725s-0.856 0.254-1.303 0.254c-0.447 0.001-0.89-0.086-1.304-0.253s-0.789-0.414-1.105-0.724c-0.316-0.31-0.567-0.679-0.738-1.085s-0.259-0.841-0.259-1.28v-8.383c-0-0.439 0.087-0.874 0.259-1.28s0.422-0.774 0.738-1.085c0.316-0.31 0.692-0.557 1.105-0.724s0.856-0.254 1.304-0.253c0.447-0 0.89 0.086 1.303 0.254s0.789 0.414 1.105 0.725c0.316 0.31 0.567 0.679 0.738 1.085s0.259 0.841 0.258 1.28v8.383z"></path>
<path fill="#ecb22e" style="fill: var(--color10, #ecb22e)" opacity="0.78" d="M20.48 25.124c0.447-0 0.89 0.086 1.303 0.254s0.789 0.414 1.105 0.725c0.316 0.311 0.567 0.679 0.738 1.085s0.259 0.841 0.258 1.28c0.001 0.439-0.087 0.874-0.258 1.28s-0.422 0.775-0.738 1.085c-0.316 0.311-0.692 0.557-1.105 0.725s-0.856 0.254-1.304 0.254c-0.447 0-0.89-0.086-1.304-0.254s-0.789-0.414-1.105-0.725c-0.316-0.311-0.567-0.679-0.738-1.085s-0.259-0.841-0.258-1.28v-3.343h3.404zM20.48 23.452c-0.447 0-0.89-0.086-1.303-0.254s-0.789-0.414-1.105-0.725c-0.316-0.311-0.567-0.679-0.738-1.085s-0.259-0.841-0.258-1.28c-0-0.439 0.087-0.874 0.258-1.28s0.422-0.774 0.738-1.085c0.316-0.311 0.692-0.557 1.105-0.725s0.856-0.254 1.303-0.254h8.538c0.447-0 0.89 0.086 1.303 0.254s0.789 0.414 1.105 0.725c0.316 0.31 0.567 0.679 0.738 1.085s0.259 0.841 0.258 1.28c0 0.439-0.087 0.874-0.258 1.28s-0.422 0.774-0.738 1.085c-0.316 0.31-0.692 0.557-1.105 0.725s-0.856 0.254-1.303 0.254h-8.538z"></path>
</symbol>
<symbol id="icon-Invision" viewBox="0 0 33 32">
<path fill="#f06" style="fill: var(--color11, #f06)" opacity="0.78" d="M0 2c0-1.105 0.895-2 2-2h28.5c1.105 0 2 0.895 2 2v27.912c0 1.105-0.895 2-2 2h-28.5c-1.105 0-2-0.895-2-2v-27.912z"></path>
<path fill="#fff" style="fill: var(--color1, #fff)" opacity="0.78" d="M11.059 10.269c1.028-0.015 1.851-0.842 1.841-1.852s-0.849-1.821-1.877-1.816-1.859 0.824-1.859 1.834c0.001 0.243 0.051 0.483 0.147 0.707s0.236 0.427 0.412 0.598 0.385 0.305 0.614 0.396c0.229 0.091 0.475 0.136 0.722 0.134v-0z"></path>
<path fill="#fff" style="fill: var(--color1, #fff)" opacity="0.78" d="M7.129 20.089c-0.108 0.452-0.164 0.914-0.168 1.377 0 1.615 0.892 2.687 2.787 2.687 1.572 0 2.847-0.916 3.764-2.397l-0.56 2.208h3.12l1.785-7.021c0.446-1.779 1.309-2.702 2.619-2.702 1.031 0 1.672 0.629 1.672 1.67 0.005 0.333-0.042 0.666-0.139 0.985l-0.919 3.228c-0.131 0.445-0.197 0.905-0.195 1.368 0 1.532 0.919 2.655 2.842 2.655 1.645 0 2.955-1.039 3.679-3.529l-1.226-0.466c-0.614 1.67-1.143 1.971-1.56 1.971s-0.642-0.273-0.642-0.821c0.012-0.287 0.059-0.572 0.139-0.849l0.893-3.146c0.201-0.647 0.304-1.319 0.307-1.995 0-2.354-1.45-3.582-3.206-3.582-1.645 0-3.316 1.456-4.152 2.989l0.612-2.752h-4.765l-0.669 2.425h2.231l-1.373 5.392c-1.079 2.354-3.060 2.392-3.309 2.337-0.408-0.091-0.668-0.243-0.668-0.766 0.012-0.424 0.077-0.844 0.195-1.252l2.090-8.143h-5.294l-0.668 2.425h2.201l-1.424 5.702z"></path>
</symbol>
<symbol id="icon-Sketch" viewBox="0 0 36 32">
<path fill="#fdb300" style="fill: var(--color12, #fdb300)" d="M17.965 0l-10.126 1.051-7.839 10.333 17.965 20.541 17.965-20.541-7.839-10.333-10.126-1.051z"></path>
<path fill="#eb6c00" style="fill: var(--color13, #eb6c00)" d="M0 11.384l17.965 20.541-10.688-20.541h-7.277z"></path>
<path fill="#eb6c00" style="fill: var(--color13, #eb6c00)" d="M28.653 11.384l-10.688 20.541 17.965-20.541h-7.277z"></path>
<path fill="#fdad00" style="fill: var(--color14, #fdad00)" d="M7.277 11.384l10.688 20.541 10.688-20.541h-21.377z"></path>
<path fill="#fdd231" style="fill: var(--color15, #fdd231)" d="M7.839 1.051l-0.563 10.333 10.688-11.384-10.126 1.051z"></path>
<path fill="#fdd231" style="fill: var(--color15, #fdd231)" d="M28.653 11.384l-0.562-10.333-10.126-1.051 10.688 11.384z"></path>
<path fill="#fdad00" style="fill: var(--color14, #fdad00)" d="M28.653 11.384h7.277l-7.839-10.333 0.563 10.333z"></path>
<path fill="#fdad00" style="fill: var(--color14, #fdad00)" d="M0 11.384h7.277l0.563-10.333-7.839 10.333z"></path>
<path fill="#feeeb7" style="fill: var(--color16, #feeeb7)" d="M17.965 0l-10.688 11.384h21.377l-10.688-11.384z"></path>
</symbol>
<symbol id="icon-Visual-studio-code" viewBox="0 0 33 32">
<path fill="#0065a9" style="fill: var(--color17, #0065a9)" opacity="0.78" d="M31.744 3.377l-6.776-3.179c-0.383-0.18-0.813-0.239-1.232-0.169s-0.805 0.264-1.105 0.556l-22.183 19.708c-0.597 0.53-0.596 1.445 0.002 1.975l1.812 1.605c0.237 0.21 0.541 0.332 0.861 0.346s0.634-0.082 0.889-0.27l26.713-19.747c0.896-0.662 2.183-0.040 2.183 1.056v-0.077c0-0.377-0.109-0.746-0.315-1.066s-0.5-0.575-0.849-0.739z"></path>
<path fill="#007acc" style="fill: var(--color18, #007acc)" opacity="0.78" d="M31.744 28.503l-6.776 3.179c-0.383 0.179-0.813 0.239-1.232 0.169s-0.805-0.264-1.105-0.556l-22.183-19.708c-0.597-0.53-0.596-1.445 0.002-1.975l1.812-1.605c0.237-0.21 0.541-0.332 0.861-0.346s0.634 0.082 0.889 0.27l26.713 19.747c0.896 0.662 2.183 0.040 2.183-1.057v0.077c0 0.377-0.109 0.746-0.315 1.066s-0.5 0.575-0.849 0.739z"></path>
<path fill="#1f9cf0" style="fill: var(--color19, #1f9cf0)" opacity="0.78" d="M24.946 31.685c-0.383 0.179-0.813 0.238-1.232 0.169s-0.805-0.264-1.105-0.557c0.758 0.739 2.056 0.216 2.056-0.83v-29.051c0-1.045-1.297-1.569-2.056-0.83 0.3-0.293 0.687-0.487 1.105-0.557s0.849-0.010 1.232 0.169l6.775 3.175c0.349 0.163 0.643 0.42 0.849 0.739s0.315 0.689 0.315 1.066v21.526c0 0.77-0.453 1.471-1.165 1.805l-6.775 3.175z"></path>
<path fill="#000" style="fill: var(--color20, #000)" opacity="0.195" d="M23.321 31.744c0.262 0.099 0.542 0.145 0.822 0.135s0.556-0.077 0.809-0.196l6.771-3.175c0.349-0.164 0.643-0.42 0.849-0.739s0.315-0.689 0.315-1.066v-21.526c0-0.377-0.109-0.747-0.315-1.066s-0.5-0.575-0.849-0.739l-6.771-3.175c-0.383-0.179-0.813-0.238-1.231-0.169s-0.805 0.264-1.105 0.557l-12.962 11.523-5.646-4.176c-0.255-0.188-0.569-0.284-0.888-0.27s-0.624 0.136-0.86 0.346l-1.811 1.605c-0.597 0.529-0.598 1.445-0.002 1.975l4.897 4.353-4.897 4.353c-0.596 0.53-0.596 1.445 0.002 1.975l1.811 1.605c0.236 0.21 0.541 0.332 0.86 0.346s0.634-0.082 0.889-0.27l5.646-4.176 12.962 11.523c0.2 0.196 0.44 0.348 0.705 0.449zM24.671 8.665l-9.835 7.275 9.835 7.275v-14.55z"></path>
</symbol>
<symbol id="icon-Notion" viewBox="0 0 32 32">
<path fill="#fff" style="fill: var(--color1, #fff)" opacity="0.78" d="M5.716 29.218l-3.439-4.285c-0.828-1.031-1.277-2.299-1.277-3.603v-15.515c0-1.954 1.564-3.576 3.581-3.714l15.951-1.089c1.159-0.079 2.311 0.229 3.263 0.873l5.605 3.789c1.003 0.678 1.601 1.787 1.601 2.97v17.639c0 1.913-1.537 3.496-3.512 3.618l-17.704 1.090c-1.576 0.097-3.099-0.567-4.067-1.773z"></path>
<path fill="#000" style="fill: var(--color20, #000)" opacity="0.78" d="M11.248 13.579v-0.203c0-0.515 0.412-0.942 0.944-0.977l3.871-0.258 5.354 7.884v-6.919l-1.378-0.184v-0.097c0-0.521 0.422-0.951 0.96-0.978l3.523-0.18v0.507c0 0.238-0.177 0.441-0.419 0.482l-0.848 0.143v11.206l-1.064 0.366c-0.889 0.306-1.878-0.022-2.387-0.789l-5.198-7.843v7.486l1.6 0.306-0.022 0.148c-0.070 0.465-0.471 0.816-0.957 0.838l-3.979 0.177c-0.053-0.5 0.322-0.947 0.839-1.001l0.523-0.055v-9.981l-1.362-0.077z"></path>
<path fill="#000" style="fill: var(--color20, #000)" opacity="0.78" d="M20.675 2.967l-15.951 1.089c-0.955 0.065-1.696 0.833-1.696 1.759v15.515c0 0.87 0.299 1.715 0.851 2.402l3.439 4.285c0.556 0.693 1.431 1.074 2.337 1.018l17.704-1.090c0.907-0.056 1.614-0.783 1.614-1.662v-17.639c0-0.544-0.275-1.053-0.735-1.365l-5.605-3.789c-0.571-0.386-1.262-0.571-1.958-0.523zM5.515 6.057c-0.222-0.164-0.116-0.506 0.162-0.526l15.105-1.083c0.481-0.035 0.959 0.098 1.349 0.374l3.031 2.147c0.115 0.082 0.061 0.258-0.081 0.265l-15.996 0.87c-0.484 0.026-0.962-0.116-1.347-0.401l-2.223-1.646zM8.334 10.831c0-0.52 0.42-0.949 0.957-0.978l16.913-0.921c0.523-0.028 0.964 0.374 0.964 0.88v15.273c0 0.519-0.418 0.948-0.954 0.978l-16.806 0.956c-0.582 0.033-1.073-0.414-1.073-0.978v-15.211z"></path>
</symbol>
</defs>
</svg>
