<svg aria-hidden="true" style="position: absolute; width: 0; height: 0; overflow: hidden;" version="1.1" xmlns="http://www.w3.org/2000/svg" xmlns:xlink="http://www.w3.org/1999/xlink">
<defs>
<symbol id="icon-Illustration-1" viewBox="0 0 33 32">
<path fill="#000" style="fill: var(--color1, #000)" opacity="0.4" d="M18.897 14.386c-0.407-0.235-0.699-0.239-0.876-0.019-0.182 0.22-0.268 0.594-0.268 1.116v2.826c0 0.536-0.048 0.982-0.148 1.336-0.101 0.369-0.268 0.627-0.498 0.781-0.225 0.158-0.532 0.196-0.919 0.125-0.378-0.067-0.852-0.268-1.418-0.594l-0.268-0.158v-2.227l0.34 0.196c0.407 0.235 0.675 0.263 0.809 0.096 0.144-0.168 0.216-0.512 0.216-1.035v-2.49c0-0.651 0.062-1.164 0.192-1.537 0.125-0.378 0.378-0.618 0.757-0.723-0.378-0.541-0.632-1.078-0.757-1.6s-0.187-1.106-0.187-1.758v-2.491c0-0.522-0.072-0.953-0.216-1.284-0.134-0.326-0.407-0.608-0.809-0.843l-0.34-0.196v-2.227l0.268 0.158c0.565 0.326 1.039 0.675 1.418 1.044 0.388 0.374 0.694 0.766 0.919 1.188 0.235 0.421 0.402 0.872 0.498 1.355 0.101 0.469 0.148 0.972 0.148 1.509v2.826c0 0.522 0.091 1.001 0.268 1.427 0.182 0.426 0.474 0.762 0.876 0.991l-0.005 2.208z"></path>
<path fill="#000" style="fill: var(--color1, #000)" opacity="0.4" d="M8.639 6.2c0.407 0.235 0.699 0.239 0.876 0.019 0.182-0.22 0.268-0.594 0.268-1.116v-2.826c0-0.536 0.048-0.982 0.148-1.336 0.101-0.369 0.263-0.627 0.489-0.785 0.235-0.153 0.541-0.192 0.919-0.125 0.388 0.072 0.867 0.273 1.432 0.603l0.268 0.158v2.227l-0.34-0.196c-0.407-0.235-0.68-0.268-0.824-0.101-0.134 0.172-0.201 0.517-0.201 1.044v2.49c0 0.647-0.062 1.164-0.192 1.537-0.125 0.378-0.378 0.618-0.757 0.723 0.378 0.541 0.632 1.078 0.757 1.6s0.187 1.106 0.187 1.758v2.49c0 0.522 0.067 0.948 0.201 1.279 0.144 0.33 0.417 0.618 0.824 0.848l0.34 0.196v2.227l-0.268-0.158c-0.565-0.326-1.044-0.68-1.432-1.049-0.378-0.369-0.685-0.761-0.919-1.188-0.225-0.417-0.388-0.867-0.484-1.346-0.101-0.469-0.148-0.972-0.148-1.509v-2.826c0-0.522-0.091-1.001-0.268-1.427-0.182-0.426-0.474-0.761-0.876-0.991v-2.222z"></path>
<path fill="#000" style="fill: var(--color1, #000)" opacity="0.15" d="M20.281 0.616l10.11 5.838-0.005 24.239-10.11-5.833 0.005-24.244z"></path>
<path fill="#587298" style="fill: var(--color2, #587298)" d="M18.38 3.791l8.046 4.641v2.227l-8.046-4.641v-2.227z"></path>
<path fill="#000" style="fill: var(--color1, #000)" opacity="0.2" d="M21.598 14.103l7.624 4.401v6.739l-7.624-4.401v-6.739z"></path>
<path fill="#fff" style="fill: var(--color3, #fff)" opacity="0.15" d="M21.522 8.935l7.739 4.468v0.762l-7.739-4.468v-0.762z"></path>
<path fill="#fff" style="fill: var(--color3, #fff)" opacity="0.15" d="M21.522 10.468l6.69 3.86v0.762l-6.69-3.86v-0.762z"></path>
<path fill="#fff" style="fill: var(--color3, #fff)" opacity="0.15" d="M21.522 11.981l5.68 3.276v0.762l-5.68-3.276v-0.762z"></path>
<path fill="#000" style="fill: var(--color1, #000)" opacity="0.2" d="M20.281 0.616l10.11 5.838v3.247l-10.114-5.833 0.005-3.252z"></path>
<path fill="#fff" style="fill: var(--color3, #fff)" opacity="0.2" d="M22.805 3.72c0 0.493-0.287 0.723-0.642 0.517s-0.642-0.766-0.642-1.26c0-0.493 0.287-0.723 0.642-0.517s0.642 0.771 0.642 1.26z"></path>
<path fill="#000" style="fill: var(--color1, #000)" opacity="0.15" d="M2.064 8.040l31.119 17.96-0.005 24.254-31.119-17.96 0.005-24.254z"></path>
<path fill="#ea8c4f" style="fill: var(--color4, #ea8c4f)" d="M0 14.017l8.041 4.641v2.227l-8.041-4.636v-2.232z"></path>
<path fill="#fff" style="fill: var(--color3, #fff)" opacity="0.15" d="M4.162 20.138l17.853 10.307v0.762l-17.853-10.307v-0.762z"></path>
<path fill="#fff" style="fill: var(--color3, #fff)" opacity="0.15" d="M4.162 21.67l15.401 8.889v0.762l-15.401-8.889v-0.762z"></path>
<path fill="#fff" style="fill: var(--color3, #fff)" opacity="0.15" d="M4.162 23.189l13.108 7.567v0.762l-13.108-7.567v-0.762z"></path>
<path fill="#000" style="fill: var(--color1, #000)" opacity="0.2" d="M1.24 23.945l13.069 7.543v6.739l-13.069-7.548v-6.734z"></path>
<path fill="#fff" style="fill: var(--color3, #fff)" opacity="0.15" d="M2.557 26.431l10.383 5.992v0.762l-10.383-5.992v-0.762z"></path>
<path fill="#fff" style="fill: var(--color3, #fff)" opacity="0.15" d="M2.557 27.964l8.314 4.799v0.762l-8.314-4.804v-0.757z"></path>
<path fill="#000" style="fill: var(--color1, #000)" opacity="0.2" d="M2.064 8.040l31.076 17.941v3.286l-31.076-17.936v-3.29z"></path>
<path fill="#fff" style="fill: var(--color3, #fff)" opacity="0.2" d="M5.45 11.636c0 0.493-0.287 0.723-0.642 0.517s-0.642-0.766-0.642-1.26c0-0.493 0.287-0.723 0.642-0.517s0.642 0.771 0.642 1.26z"></path>
</symbol>
</defs>
</svg>
