<svg aria-hidden="true" style="position: absolute; width: 0; height: 0; overflow: hidden;" version="1.1" xmlns="http://www.w3.org/2000/svg" xmlns:xlink="http://www.w3.org/1999/xlink">
<defs>
<symbol id="icon-illustration" viewBox="0 0 33 32">
<path fill="#000" style="fill: var(--color1, #000)" opacity="0.4" d="M18.897 14.386c-0.407-0.235-0.699-0.239-0.876-0.019-0.182 0.22-0.268 0.594-0.268 1.116v2.826c0 0.536-0.048 0.982-0.148 1.336-0.101 0.369-0.268 0.627-0.498 0.781-0.225 0.158-0.532 0.196-0.919 0.125-0.378-0.067-0.852-0.268-1.418-0.594l-0.268-0.158v-2.227l0.34 0.196c0.407 0.235 0.675 0.263 0.809 0.096 0.144-0.168 0.216-0.512 0.216-1.035v-2.49c0-0.651 0.062-1.164 0.192-1.537 0.125-0.378 0.378-0.618 0.757-0.723-0.378-0.541-0.632-1.078-0.757-1.6s-0.187-1.106-0.187-1.758v-2.491c0-0.522-0.072-0.953-0.216-1.284-0.134-0.326-0.407-0.608-0.809-0.843l-0.34-0.196v-2.227l0.268 0.158c0.565 0.326 1.039 0.675 1.418 1.044 0.388 0.374 0.694 0.766 0.919 1.188 0.235 0.421 0.402 0.872 0.498 1.355 0.101 0.469 0.148 0.972 0.148 1.509v2.826c0 0.522 0.091 1.001 0.268 1.427 0.182 0.426 0.474 0.762 0.876 0.991l-0.005 2.208z"></path>
<path fill="#000" style="fill: var(--color1, #000)" opacity="0.4" d="M8.639 6.2c0.407 0.235 0.699 0.239 0.876 0.019 0.182-0.22 0.268-0.594 0.268-1.116v-2.826c0-0.536 0.048-0.982 0.148-1.336 0.101-0.369 0.263-0.627 0.489-0.785 0.235-0.153 0.541-0.192 0.919-0.125 0.388 0.072 0.867 0.273 1.432 0.603l0.268 0.158v2.227l-0.34-0.196c-0.407-0.235-0.68-0.268-0.824-0.101-0.134 0.172-0.201 0.517-0.201 1.044v2.49c0 0.647-0.062 1.164-0.192 1.537-0.125 0.378-0.378 0.618-0.757 0.723 0.378 0.541 0.632 1.078 0.757 1.6s0.187 1.106 0.187 1.758v2.49c0 0.522 0.067 0.948 0.201 1.279 0.144 0.33 0.417 0.618 0.824 0.848l0.34 0.196v2.227l-0.268-0.158c-0.565-0.326-1.044-0.68-1.432-1.049-0.378-0.369-0.685-0.761-0.919-1.188-0.225-0.417-0.388-0.867-0.484-1.346-0.101-0.469-0.148-0.972-0.148-1.509v-2.826c0-0.522-0.091-1.001-0.268-1.427-0.182-0.426-0.474-0.761-0.876-0.991v-2.222z"></path>
<path fill="#000" style="fill: var(--color1, #000)" opacity="0.15" d="M20.281 0.616l10.11 5.838-0.005 24.239-10.11-5.833 0.005-24.244z"></path>
<path fill="#587298" style="fill: var(--color2, #587298)" d="M18.38 3.791l8.046 4.641v2.227l-8.046-4.641v-2.227z"></path>
<path fill="#000" style="fill: var(--color1, #000)" opacity="0.2" d="M21.598 14.103l7.624 4.401v6.739l-7.624-4.401v-6.739z"></path>
<path fill="#fff" style="fill: var(--color3, #fff)" opacity="0.15" d="M21.522 8.935l7.739 4.468v0.762l-7.739-4.468v-0.762z"></path>
<path fill="#fff" style="fill: var(--color3, #fff)" opacity="0.15" d="M21.522 10.468l6.69 3.86v0.762l-6.69-3.86v-0.762z"></path>
<path fill="#fff" style="fill: var(--color3, #fff)" opacity="0.15" d="M21.522 11.981l5.68 3.276v0.762l-5.68-3.276v-0.762z"></path>
<path fill="#000" style="fill: var(--color1, #000)" opacity="0.2" d="M20.281 0.616l10.11 5.838v3.247l-10.114-5.833 0.005-3.252z"></path>
<path fill="#fff" style="fill: var(--color3, #fff)" opacity="0.2" d="M22.805 3.72c0 0.493-0.287 0.723-0.642 0.517s-0.642-0.766-0.642-1.26c0-0.493 0.287-0.723 0.642-0.517s0.642 0.771 0.642 1.26z"></path>
<path fill="#000" style="fill: var(--color1, #000)" opacity="0.15" d="M2.064 8.040l31.119 17.96-0.005 24.254-31.119-17.96 0.005-24.254z"></path>
<path fill="#ea8c4f" style="fill: var(--color4, #ea8c4f)" d="M0 14.017l8.041 4.641v2.227l-8.041-4.636v-2.232z"></path>
<path fill="#fff" style="fill: var(--color3, #fff)" opacity="0.15" d="M4.162 20.138l17.853 10.307v0.762l-17.853-10.307v-0.762z"></path>
<path fill="#fff" style="fill: var(--color3, #fff)" opacity="0.15" d="M4.162 21.67l15.401 8.889v0.762l-15.401-8.889v-0.762z"></path>
<path fill="#fff" style="fill: var(--color3, #fff)" opacity="0.15" d="M4.162 23.189l13.108 7.567v0.762l-13.108-7.567v-0.762z"></path>
<path fill="#000" style="fill: var(--color1, #000)" opacity="0.2" d="M1.24 23.945l13.069 7.543v6.739l-13.069-7.548v-6.734z"></path>
<path fill="#fff" style="fill: var(--color3, #fff)" opacity="0.15" d="M2.557 26.431l10.383 5.992v0.762l-10.383-5.992v-0.762z"></path>
<path fill="#fff" style="fill: var(--color3, #fff)" opacity="0.15" d="M2.557 27.964l8.314 4.799v0.762l-8.314-4.804v-0.757z"></path>
<path fill="#000" style="fill: var(--color1, #000)" opacity="0.2" d="M2.064 8.040l31.076 17.941v3.286l-31.076-17.936v-3.29z"></path>
<path fill="#fff" style="fill: var(--color3, #fff)" opacity="0.2" d="M5.45 11.636c0 0.493-0.287 0.723-0.642 0.517s-0.642-0.766-0.642-1.26c0-0.493 0.287-0.723 0.642-0.517s0.642 0.771 0.642 1.26z"></path>
</symbol>
<symbol id="icon-facebook" viewBox="0 0 32 32">
<path  opacity="0.78" d="M17.863 27.996v-10.928h3.687l0.548-4.279h-4.235v-2.725c0-1.235 0.344-2.080 2.116-2.080h2.245v-3.815c-1.093-0.117-2.191-0.174-3.289-0.169-3.259 0-5.496 1.989-5.496 5.641v3.14h-3.663v4.279h3.671v10.936h4.416z"></path>
</symbol>
<symbol id="icon-instagram" viewBox="0 0 32 32">
<path  opacity="0.78" d="M15.999 9.836c-1.635 0-3.203 0.65-4.36 1.806s-1.806 2.724-1.806 4.36c0 1.635 0.65 3.203 1.806 4.36s2.724 1.806 4.36 1.806 3.203-0.649 4.36-1.806c1.156-1.156 1.806-2.724 1.806-4.36s-0.65-3.203-1.806-4.36c-1.156-1.156-2.724-1.806-4.36-1.806zM15.999 20.005c-1.062 0-2.081-0.422-2.832-1.173s-1.173-1.77-1.173-2.832c0-1.062 0.422-2.081 1.173-2.832s1.77-1.173 2.832-1.173 2.081 0.422 2.832 1.173c0.751 0.751 1.173 1.77 1.173 2.832s-0.422 2.081-1.173 2.832c-0.751 0.751-1.77 1.173-2.832 1.173z"></path>
<path  opacity="0.78" d="M22.408 11.047c0.794 0 1.437-0.644 1.437-1.437s-0.644-1.437-1.437-1.437-1.437 0.644-1.437 1.437c0 0.794 0.644 1.437 1.437 1.437z"></path>
<path  opacity="0.78" d="M27.377 8.148c-0.309-0.797-0.78-1.521-1.385-2.125s-1.329-1.076-2.126-1.384c-0.933-0.35-1.918-0.54-2.915-0.56-1.284-0.056-1.691-0.072-4.947-0.072s-3.673 0-4.947 0.072c-0.995 0.019-1.98 0.209-2.912 0.56-0.797 0.308-1.522 0.779-2.126 1.384s-1.076 1.328-1.384 2.126c-0.35 0.933-0.539 1.918-0.559 2.915-0.057 1.283-0.075 1.689-0.075 4.947 0 3.256 0 3.671 0.075 4.947 0.020 0.997 0.208 1.981 0.559 2.916 0.309 0.797 0.781 1.521 1.386 2.125s1.329 1.076 2.126 1.384c0.93 0.364 1.915 0.567 2.913 0.6 1.284 0.056 1.691 0.073 4.947 0.073s3.673 0 4.947-0.073c0.996-0.020 1.982-0.209 2.915-0.559 0.797-0.309 1.521-0.781 2.125-1.385s1.076-1.328 1.385-2.125c0.351-0.933 0.539-1.917 0.559-2.915 0.057-1.283 0.075-1.689 0.075-4.947s0-3.671-0.075-4.947c-0.016-1.010-0.205-2.010-0.561-2.956zM25.753 20.857c-0.009 0.768-0.149 1.53-0.415 2.251-0.2 0.519-0.507 0.989-0.9 1.382s-0.864 0.699-1.383 0.899c-0.713 0.265-1.466 0.405-2.227 0.415-1.267 0.059-1.624 0.073-4.872 0.073-3.251 0-3.583 0-4.873-0.073-0.76-0.009-1.513-0.149-2.225-0.415-0.52-0.199-0.993-0.504-1.388-0.897s-0.703-0.864-0.904-1.384c-0.262-0.713-0.402-1.465-0.415-2.225-0.057-1.267-0.071-1.624-0.071-4.872 0-3.249 0-3.581 0.071-4.873 0.009-0.768 0.149-1.529 0.415-2.249 0.407-1.052 1.24-1.88 2.292-2.283 0.713-0.264 1.465-0.404 2.225-0.415 1.268-0.057 1.624-0.073 4.873-0.073s3.583 0 4.872 0.073c0.761 0.009 1.514 0.149 2.227 0.415 0.519 0.2 0.989 0.507 1.383 0.9s0.7 0.864 0.9 1.383c0.262 0.713 0.402 1.466 0.415 2.225 0.057 1.268 0.072 1.624 0.072 4.873 0 3.248 0 3.597-0.057 4.872h-0.015v-0.001z"></path>
</symbol>
<symbol id="icon-twitter" viewBox="0 0 32 32">
<path  opacity="0.78" d="M26.177 10.663c0.017 0.233 0.017 0.465 0.017 0.697 0 7.1-5.404 15.281-15.28 15.281-3.043 0-5.869-0.881-8.248-2.412 0.432 0.049 0.848 0.067 1.297 0.067 2.417 0.006 4.766-0.802 6.668-2.295-1.121-0.020-2.207-0.39-3.108-1.058s-1.57-1.6-1.915-2.666c0.332 0.049 0.665 0.083 1.015 0.083 0.481 0 0.965-0.067 1.415-0.183-1.216-0.246-2.31-0.905-3.095-1.866s-1.213-2.164-1.212-3.405v-0.067c0.716 0.399 1.547 0.648 2.427 0.681-0.737-0.49-1.342-1.155-1.76-1.935s-0.636-1.652-0.635-2.537c0-0.997 0.265-1.912 0.731-2.709 1.35 1.66 3.033 3.018 4.94 3.986s3.998 1.525 6.134 1.634c-0.083-0.4-0.133-0.815-0.133-1.231-0-0.705 0.138-1.404 0.408-2.056s0.665-1.244 1.164-1.743 1.091-0.894 1.743-1.164c0.652-0.27 1.35-0.408 2.056-0.408 1.547 0 2.943 0.648 3.924 1.696 1.202-0.232 2.355-0.671 3.408-1.297-0.401 1.241-1.24 2.293-2.361 2.96 1.066-0.122 2.109-0.402 3.092-0.832-0.735 1.071-1.645 2.010-2.692 2.777z"></path>
</symbol>
<symbol id="icon-search" viewBox="0 0 33 32">
<path fill="none"   stroke-linejoin="round" stroke-linecap="round" stroke-miterlimit="4" stroke-width="2.6667" d="M14.667 25.333c5.891 0 10.667-4.776 10.667-10.667s-4.776-10.667-10.667-10.667c-5.891 0-10.667 4.776-10.667 10.667s4.776 10.667 10.667 10.667z"></path>
<path fill="none"   stroke-linejoin="round" stroke-linecap="round" stroke-miterlimit="4" stroke-width="2.6667" d="M28 28l-5.8-5.8"></path>
</symbol>
</defs>
</svg>
